<svg width="153" height="44" viewBox="0 0 153 44" fill="none" xmlns="http://www.w3.org/2000/svg">
<path d="M8.57812 17.5234C8.57812 16.8281 8.39844 16.3047 8.03906 15.9531C7.6875 15.5938 7.04297 15.2227 6.10547 14.8398C4.39453 14.1914 3.16406 13.4336 2.41406 12.5664C1.66406 11.6914 1.28906 10.6602 1.28906 9.47266C1.28906 8.03516 1.79688 6.88281 2.8125 6.01562C3.83594 5.14062 5.13281 4.70312 6.70312 4.70312C7.75 4.70312 8.68359 4.92578 9.50391 5.37109C10.3242 5.80859 10.9531 6.42969 11.3906 7.23438C11.8359 8.03906 12.0586 8.95312 12.0586 9.97656H8.625C8.625 9.17969 8.45312 8.57422 8.10938 8.16016C7.77344 7.73828 7.28516 7.52734 6.64453 7.52734C6.04297 7.52734 5.57422 7.70703 5.23828 8.06641C4.90234 8.41797 4.73438 8.89453 4.73438 9.49609C4.73438 9.96484 4.92188 10.3906 5.29688 10.7734C5.67188 11.1484 6.33594 11.5391 7.28906 11.9453C8.95312 12.5469 10.1602 13.2852 10.9102 14.1602C11.668 15.0352 12.0469 16.1484 12.0469 17.5C12.0469 18.9844 11.5742 20.1445 10.6289 20.9805C9.68359 21.8164 8.39844 22.2344 6.77344 22.2344C5.67188 22.2344 4.66797 22.0078 3.76172 21.5547C2.85547 21.1016 2.14453 20.4531 1.62891 19.6094C1.12109 18.7656 0.867188 17.7695 0.867188 16.6211H4.32422C4.32422 17.6055 4.51562 18.3203 4.89844 18.7656C5.28125 19.2109 5.90625 19.4336 6.77344 19.4336C7.97656 19.4336 8.57812 18.7969 8.57812 17.5234ZM17.9297 22H14.4844V4.9375H17.9297V22ZM32.3906 16.3164C32.3047 18.2617 31.7578 19.7344 30.75 20.7344C29.7422 21.7344 28.3203 22.2344 26.4844 22.2344C24.5547 22.2344 23.0742 21.6016 22.043 20.3359C21.0195 19.0625 20.5078 17.25 20.5078 14.8984V12.0273C20.5078 9.68359 21.0391 7.87891 22.1016 6.61328C23.1641 5.33984 24.6406 4.70312 26.5312 4.70312C28.3906 4.70312 29.8008 5.22266 30.7617 6.26172C31.7305 7.30078 32.2812 8.79297 32.4141 10.7383H28.957C28.9258 9.53516 28.7383 8.70703 28.3945 8.25391C28.0586 7.79297 27.4375 7.5625 26.5312 7.5625C25.6094 7.5625 24.957 7.88672 24.5742 8.53516C24.1914 9.17578 23.9883 10.2344 23.9648 11.7109V14.9336C23.9648 16.6289 24.1523 17.793 24.5273 18.4258C24.9102 19.0586 25.5625 19.375 26.4844 19.375C27.3906 19.375 28.0156 19.1562 28.3594 18.7188C28.7031 18.2734 28.8984 17.4727 28.9453 16.3164H32.3906ZM41.7188 17.5234C41.7188 16.8281 41.5391 16.3047 41.1797 15.9531C40.8281 15.5938 40.1836 15.2227 39.2461 14.8398C37.5352 14.1914 36.3047 13.4336 35.5547 12.5664C34.8047 11.6914 34.4297 10.6602 34.4297 9.47266C34.4297 8.03516 34.9375 6.88281 35.9531 6.01562C36.9766 5.14062 38.2734 4.70312 39.8438 4.70312C40.8906 4.70312 41.8242 4.92578 42.6445 5.37109C43.4648 5.80859 44.0938 6.42969 44.5312 7.23438C44.9766 8.03906 45.1992 8.95312 45.1992 9.97656H41.7656C41.7656 9.17969 41.5938 8.57422 41.25 8.16016C40.9141 7.73828 40.4258 7.52734 39.7852 7.52734C39.1836 7.52734 38.7148 7.70703 38.3789 8.06641C38.043 8.41797 37.875 8.89453 37.875 9.49609C37.875 9.96484 38.0625 10.3906 38.4375 10.7734C38.8125 11.1484 39.4766 11.5391 40.4297 11.9453C42.0938 12.5469 43.3008 13.2852 44.0508 14.1602C44.8086 15.0352 45.1875 16.1484 45.1875 17.5C45.1875 18.9844 44.7148 20.1445 43.7695 20.9805C42.8242 21.8164 41.5391 22.2344 39.9141 22.2344C38.8125 22.2344 37.8086 22.0078 36.9023 21.5547C35.9961 21.1016 35.2852 20.4531 34.7695 19.6094C34.2617 18.7656 34.0078 17.7695 34.0078 16.6211H37.4648C37.4648 17.6055 37.6562 18.3203 38.0391 18.7656C38.4219 19.2109 39.0469 19.4336 39.9141 19.4336C41.1172 19.4336 41.7188 18.7969 41.7188 17.5234Z" fill="#006699"/>
<path d="M5.4209 38.4844C5.4209 37.9876 5.28646 37.6071 5.01758 37.3428C4.7487 37.0785 4.26335 36.821 3.56152 36.5703C2.8597 36.3197 2.32194 36.0576 1.94824 35.7842C1.5791 35.5062 1.30111 35.1917 1.11426 34.8408C0.931966 34.4854 0.84082 34.0798 0.84082 33.624C0.84082 32.8356 1.10286 32.1862 1.62695 31.6758C2.1556 31.1654 2.84603 30.9102 3.69824 30.9102C4.28158 30.9102 4.80111 31.0423 5.25684 31.3066C5.71257 31.5664 6.06348 31.9287 6.30957 32.3936C6.55566 32.8584 6.67871 33.3688 6.67871 33.9248H5.4209C5.4209 33.3096 5.27279 32.8333 4.97656 32.4961C4.68034 32.1589 4.25423 31.9902 3.69824 31.9902C3.19238 31.9902 2.80046 32.1315 2.52246 32.4141C2.24447 32.6966 2.10547 33.0931 2.10547 33.6035C2.10547 34.0228 2.25586 34.3737 2.55664 34.6562C2.85742 34.9388 3.32227 35.1917 3.95117 35.415C4.93099 35.7386 5.63053 36.1374 6.0498 36.6113C6.47363 37.0853 6.68555 37.7051 6.68555 38.4707C6.68555 39.2773 6.4235 39.9245 5.89941 40.4121C5.37533 40.8952 4.66211 41.1367 3.75977 41.1367C3.18099 41.1367 2.64551 41.0114 2.15332 40.7607C1.66569 40.5055 1.2806 40.1501 0.998047 39.6943C0.720052 39.234 0.581055 38.7077 0.581055 38.1152H1.83887C1.83887 38.7305 2.00977 39.209 2.35156 39.5508C2.69792 39.8926 3.16732 40.0635 3.75977 40.0635C4.3112 40.0635 4.72591 39.9222 5.00391 39.6396C5.2819 39.3571 5.4209 38.972 5.4209 38.4844ZM9.46777 41H8.25781V33.6035H9.46777V41ZM9.56348 31.6416C9.56348 31.8467 9.50651 32.0176 9.39258 32.1543C9.27865 32.291 9.10547 32.3594 8.87305 32.3594C8.64518 32.3594 8.47428 32.291 8.36035 32.1543C8.24642 32.0176 8.18945 31.8467 8.18945 31.6416C8.18945 31.4365 8.24642 31.2633 8.36035 31.1221C8.47428 30.9808 8.64518 30.9102 8.87305 30.9102C9.10091 30.9102 9.27181 30.9831 9.38574 31.1289C9.50423 31.2702 9.56348 31.4411 9.56348 31.6416ZM14.9707 39.1064C14.9707 38.8467 14.8727 38.6234 14.6768 38.4365C14.4808 38.2497 14.1025 38.0309 13.542 37.7803C12.8903 37.5114 12.43 37.2812 12.1611 37.0898C11.8968 36.8984 11.6986 36.682 11.5664 36.4404C11.4342 36.1943 11.3682 35.9027 11.3682 35.5654C11.3682 34.9639 11.5869 34.4648 12.0244 34.0684C12.4665 33.6673 13.0293 33.4668 13.7129 33.4668C14.4329 33.4668 15.0117 33.6764 15.4492 34.0957C15.8867 34.515 16.1055 35.0527 16.1055 35.709H14.9023C14.9023 35.3763 14.7907 35.0938 14.5674 34.8613C14.3441 34.6243 14.0592 34.5059 13.7129 34.5059C13.3574 34.5059 13.0771 34.5993 12.8721 34.7861C12.6715 34.9684 12.5713 35.2145 12.5713 35.5244C12.5713 35.7705 12.6442 35.9688 12.79 36.1191C12.9404 36.2695 13.2982 36.4678 13.8633 36.7139C14.7611 37.0648 15.3717 37.4089 15.6953 37.7461C16.0189 38.0788 16.1807 38.5026 16.1807 39.0176C16.1807 39.6602 15.9596 40.1751 15.5176 40.5625C15.0755 40.9453 14.4831 41.1367 13.7402 41.1367C12.9701 41.1367 12.3457 40.9157 11.8672 40.4736C11.3887 40.0316 11.1494 39.471 11.1494 38.792H12.3662C12.3799 39.2021 12.5052 39.5234 12.7422 39.7559C12.9792 39.9883 13.3118 40.1045 13.7402 40.1045C14.1413 40.1045 14.4466 40.0156 14.6562 39.8379C14.8659 39.6556 14.9707 39.4118 14.9707 39.1064ZM19.3457 31.8125V33.6035H20.46V34.5811H19.3457V39.168C19.3457 39.4596 19.3936 39.6807 19.4893 39.8311C19.585 39.9814 19.749 40.0566 19.9814 40.0566C20.141 40.0566 20.3027 40.0293 20.4668 39.9746L20.4531 41C20.1797 41.0911 19.8994 41.1367 19.6123 41.1367C19.1338 41.1367 18.7692 40.9658 18.5186 40.624C18.2679 40.2822 18.1426 39.7992 18.1426 39.1748V34.5811H17.0146V33.6035H18.1426V31.8125H19.3457ZM24.5479 41.1367C23.6273 41.1367 22.9209 40.8633 22.4287 40.3164C21.9365 39.765 21.6859 38.9583 21.6768 37.8965V37.001C21.6768 35.8981 21.916 35.0345 22.3945 34.4102C22.8776 33.7812 23.5498 33.4668 24.4111 33.4668C25.277 33.4668 25.9242 33.7425 26.3525 34.2939C26.7809 34.8454 26.9997 35.7044 27.0088 36.8711V37.6641H22.8799V37.835C22.8799 38.6279 23.028 39.2044 23.3242 39.5645C23.625 39.9245 24.0557 40.1045 24.6162 40.1045C24.9717 40.1045 25.2839 40.0384 25.5527 39.9062C25.8262 39.7695 26.0814 39.5553 26.3184 39.2637L26.9473 40.0293C26.4232 40.7676 25.6234 41.1367 24.5479 41.1367ZM24.4111 34.5059C23.9098 34.5059 23.5384 34.679 23.2969 35.0254C23.0553 35.3672 22.9186 35.9004 22.8867 36.625H25.7988V36.4609C25.7669 35.7591 25.6393 35.2578 25.416 34.957C25.1973 34.6562 24.8623 34.5059 24.4111 34.5059ZM29.6064 33.6035L29.6338 34.2871C30.085 33.7402 30.6797 33.4668 31.418 33.4668C32.2428 33.4668 32.8193 33.8245 33.1475 34.54C33.6123 33.8245 34.2594 33.4668 35.0889 33.4668C36.4515 33.4668 37.1488 34.3167 37.1807 36.0166V41H35.9775V36.1328C35.9775 35.5951 35.8818 35.1963 35.6904 34.9365C35.499 34.6722 35.1755 34.54 34.7197 34.54C34.3551 34.54 34.0589 34.6813 33.8311 34.9639C33.6032 35.2464 33.471 35.6064 33.4346 36.0439V41H32.2178V36.0781C32.2041 35.0527 31.7871 34.54 30.9668 34.54C30.3561 34.54 29.9255 34.8454 29.6748 35.4561V41H28.4717V33.6035H29.6064ZM42.8135 41C42.7406 40.8405 42.6882 40.5716 42.6562 40.1934C42.2279 40.8223 41.681 41.1367 41.0156 41.1367C40.3457 41.1367 39.8216 40.9499 39.4434 40.5762C39.0697 40.1979 38.8828 39.667 38.8828 38.9834C38.8828 38.2314 39.138 37.6344 39.6484 37.1924C40.1589 36.7503 40.8584 36.5247 41.7471 36.5156H42.6357V35.7295C42.6357 35.2874 42.5378 34.973 42.3418 34.7861C42.1458 34.5993 41.8473 34.5059 41.4463 34.5059C41.0817 34.5059 40.7855 34.6152 40.5576 34.834C40.3298 35.0482 40.2158 35.3216 40.2158 35.6543H39.0059C39.0059 35.276 39.1175 34.916 39.3408 34.5742C39.5641 34.2279 39.8649 33.9567 40.2432 33.7607C40.6214 33.5648 41.043 33.4668 41.5078 33.4668C42.2643 33.4668 42.8385 33.6559 43.2305 34.0342C43.627 34.4079 43.8298 34.9548 43.8389 35.6748V39.4072C43.8434 39.9769 43.9209 40.4714 44.0713 40.8906V41H42.8135ZM41.2002 40.0361C41.4964 40.0361 41.779 39.9541 42.0479 39.79C42.3167 39.626 42.5127 39.4209 42.6357 39.1748V37.4111H41.9521C41.3779 37.4202 40.9245 37.5501 40.5918 37.8008C40.2591 38.0469 40.0928 38.3932 40.0928 38.8398C40.0928 39.2591 40.1771 39.5645 40.3457 39.7559C40.5143 39.9427 40.7992 40.0361 41.2002 40.0361ZM48.6787 36.9668C48.6787 35.8275 48.8906 34.9593 49.3145 34.3623C49.7428 33.7653 50.3558 33.4668 51.1533 33.4668C51.8597 33.4668 52.4111 33.7539 52.8076 34.3281V30.5H54.0176V41H52.9102L52.8486 40.207C52.4521 40.8268 51.8848 41.1367 51.1465 41.1367C50.3809 41.1367 49.7793 40.8405 49.3418 40.248C48.9089 39.651 48.6878 38.8102 48.6787 37.7256V36.9668ZM49.8887 37.6572C49.8887 38.4867 50.0117 39.0973 50.2578 39.4893C50.5039 39.8766 50.9049 40.0703 51.4609 40.0703C52.0625 40.0703 52.5114 39.7673 52.8076 39.1611V35.4287C52.4977 34.8363 52.0511 34.54 51.4678 34.54C50.9118 34.54 50.5107 34.736 50.2646 35.1279C50.0186 35.5153 49.8932 36.1123 49.8887 36.9189V37.6572ZM58.5225 41.1367C57.6019 41.1367 56.8955 40.8633 56.4033 40.3164C55.9111 39.765 55.6605 38.9583 55.6514 37.8965V37.001C55.6514 35.8981 55.8906 35.0345 56.3691 34.4102C56.8522 33.7812 57.5244 33.4668 58.3857 33.4668C59.2516 33.4668 59.8988 33.7425 60.3271 34.2939C60.7555 34.8454 60.9743 35.7044 60.9834 36.8711V37.6641H56.8545V37.835C56.8545 38.6279 57.0026 39.2044 57.2988 39.5645C57.5996 39.9245 58.0303 40.1045 58.5908 40.1045C58.9463 40.1045 59.2585 40.0384 59.5273 39.9062C59.8008 39.7695 60.056 39.5553 60.293 39.2637L60.9219 40.0293C60.3978 40.7676 59.598 41.1367 58.5225 41.1367ZM58.3857 34.5059C57.8844 34.5059 57.513 34.679 57.2715 35.0254C57.0299 35.3672 56.8932 35.9004 56.8613 36.625H59.7734V36.4609C59.7415 35.7591 59.6139 35.2578 59.3906 34.957C59.1719 34.6562 58.8369 34.5059 58.3857 34.5059ZM72.0645 37.8418C72.0098 38.9082 71.709 39.724 71.1621 40.2891C70.6198 40.8542 69.8519 41.1367 68.8584 41.1367C67.8604 41.1367 67.0674 40.7585 66.4795 40.002C65.8916 39.2409 65.5977 38.2109 65.5977 36.9121V35.1074C65.5977 33.8132 65.8984 32.79 66.5 32.0381C67.1061 31.2861 67.931 30.9102 68.9746 30.9102C69.9362 30.9102 70.679 31.1995 71.2031 31.7783C71.7318 32.3525 72.0189 33.1751 72.0645 34.2461H70.7998C70.7451 33.4349 70.5742 32.8561 70.2871 32.5098C70 32.1634 69.5625 31.9902 68.9746 31.9902C68.2956 31.9902 67.7738 32.2568 67.4092 32.79C67.0446 33.3187 66.8623 34.0957 66.8623 35.1211V36.9463C66.8623 37.9535 67.0309 38.7259 67.3682 39.2637C67.71 39.8014 68.2067 40.0703 68.8584 40.0703C69.5101 40.0703 69.9795 39.9085 70.2666 39.585C70.5537 39.2614 70.7314 38.6803 70.7998 37.8418H72.0645ZM77.4033 41C77.3304 40.8405 77.278 40.5716 77.2461 40.1934C76.8177 40.8223 76.2708 41.1367 75.6055 41.1367C74.9355 41.1367 74.4115 40.9499 74.0332 40.5762C73.6595 40.1979 73.4727 39.667 73.4727 38.9834C73.4727 38.2314 73.7279 37.6344 74.2383 37.1924C74.7487 36.7503 75.4482 36.5247 76.3369 36.5156H77.2256V35.7295C77.2256 35.2874 77.1276 34.973 76.9316 34.7861C76.7357 34.5993 76.4372 34.5059 76.0361 34.5059C75.6715 34.5059 75.3753 34.6152 75.1475 34.834C74.9196 35.0482 74.8057 35.3216 74.8057 35.6543H73.5957C73.5957 35.276 73.7074 34.916 73.9307 34.5742C74.154 34.2279 74.4548 33.9567 74.833 33.7607C75.2113 33.5648 75.6328 33.4668 76.0977 33.4668C76.8542 33.4668 77.4284 33.6559 77.8203 34.0342C78.2168 34.4079 78.4196 34.9548 78.4287 35.6748V39.4072C78.4333 39.9769 78.5107 40.4714 78.6611 40.8906V41H77.4033ZM75.79 40.0361C76.0863 40.0361 76.3688 39.9541 76.6377 39.79C76.9066 39.626 77.1025 39.4209 77.2256 39.1748V37.4111H76.542C75.9678 37.4202 75.5143 37.5501 75.1816 37.8008C74.849 38.0469 74.6826 38.3932 74.6826 38.8398C74.6826 39.2591 74.7669 39.5645 74.9355 39.7559C75.1042 39.9427 75.389 40.0361 75.79 40.0361ZM80.0557 36.9668C80.0557 35.8275 80.2676 34.9593 80.6914 34.3623C81.1198 33.7653 81.7327 33.4668 82.5303 33.4668C83.2367 33.4668 83.7881 33.7539 84.1846 34.3281V30.5H85.3945V41H84.2871L84.2256 40.207C83.8291 40.8268 83.2617 41.1367 82.5234 41.1367C81.7578 41.1367 81.1562 40.8405 80.7188 40.248C80.2858 39.651 80.0648 38.8102 80.0557 37.7256V36.9668ZM81.2656 37.6572C81.2656 38.4867 81.3887 39.0973 81.6348 39.4893C81.8809 39.8766 82.2819 40.0703 82.8379 40.0703C83.4395 40.0703 83.8883 39.7673 84.1846 39.1611V35.4287C83.8747 34.8363 83.4281 34.54 82.8447 34.54C82.2887 34.54 81.8877 34.736 81.6416 35.1279C81.3955 35.5153 81.2702 36.1123 81.2656 36.9189V37.6572ZM91.0615 41C90.9886 40.8405 90.9362 40.5716 90.9043 40.1934C90.4759 40.8223 89.929 41.1367 89.2637 41.1367C88.5938 41.1367 88.0697 40.9499 87.6914 40.5762C87.3177 40.1979 87.1309 39.667 87.1309 38.9834C87.1309 38.2314 87.3861 37.6344 87.8965 37.1924C88.4069 36.7503 89.1064 36.5247 89.9951 36.5156H90.8838V35.7295C90.8838 35.2874 90.7858 34.973 90.5898 34.7861C90.3939 34.5993 90.0954 34.5059 89.6943 34.5059C89.3298 34.5059 89.0335 34.6152 88.8057 34.834C88.5778 35.0482 88.4639 35.3216 88.4639 35.6543H87.2539C87.2539 35.276 87.3656 34.916 87.5889 34.5742C87.8122 34.2279 88.113 33.9567 88.4912 33.7607C88.8695 33.5648 89.291 33.4668 89.7559 33.4668C90.5124 33.4668 91.0866 33.6559 91.4785 34.0342C91.875 34.4079 92.0778 34.9548 92.0869 35.6748V39.4072C92.0915 39.9769 92.1689 40.4714 92.3193 40.8906V41H91.0615ZM89.4482 40.0361C89.7445 40.0361 90.027 39.9541 90.2959 39.79C90.5648 39.626 90.7607 39.4209 90.8838 39.1748V37.4111H90.2002C89.626 37.4202 89.1725 37.5501 88.8398 37.8008C88.5072 38.0469 88.3408 38.3932 88.3408 38.8398C88.3408 39.2591 88.4251 39.5645 88.5938 39.7559C88.7624 39.9427 89.0472 40.0361 89.4482 40.0361ZM97.5625 39.1064C97.5625 38.8467 97.4645 38.6234 97.2686 38.4365C97.0726 38.2497 96.6943 38.0309 96.1338 37.7803C95.4821 37.5114 95.0218 37.2812 94.7529 37.0898C94.4886 36.8984 94.2904 36.682 94.1582 36.4404C94.026 36.1943 93.96 35.9027 93.96 35.5654C93.96 34.9639 94.1787 34.4648 94.6162 34.0684C95.0583 33.6673 95.6211 33.4668 96.3047 33.4668C97.0247 33.4668 97.6035 33.6764 98.041 34.0957C98.4785 34.515 98.6973 35.0527 98.6973 35.709H97.4941C97.4941 35.3763 97.3825 35.0938 97.1592 34.8613C96.9359 34.6243 96.651 34.5059 96.3047 34.5059C95.9492 34.5059 95.6689 34.5993 95.4639 34.7861C95.2633 34.9684 95.1631 35.2145 95.1631 35.5244C95.1631 35.7705 95.236 35.9688 95.3818 36.1191C95.5322 36.2695 95.89 36.4678 96.4551 36.7139C97.3529 37.0648 97.9635 37.4089 98.2871 37.7461C98.6107 38.0788 98.7725 38.5026 98.7725 39.0176C98.7725 39.6602 98.5514 40.1751 98.1094 40.5625C97.6673 40.9453 97.0749 41.1367 96.332 41.1367C95.5618 41.1367 94.9375 40.9157 94.459 40.4736C93.9805 40.0316 93.7412 39.471 93.7412 38.792H94.958C94.9717 39.2021 95.097 39.5234 95.334 39.7559C95.571 39.9883 95.9036 40.1045 96.332 40.1045C96.7331 40.1045 97.0384 40.0156 97.248 39.8379C97.4577 39.6556 97.5625 39.4118 97.5625 39.1064ZM101.938 31.8125V33.6035H103.052V34.5811H101.938V39.168C101.938 39.4596 101.985 39.6807 102.081 39.8311C102.177 39.9814 102.341 40.0566 102.573 40.0566C102.733 40.0566 102.895 40.0293 103.059 39.9746L103.045 41C102.771 41.0911 102.491 41.1367 102.204 41.1367C101.726 41.1367 101.361 40.9658 101.11 40.624C100.86 40.2822 100.734 39.7992 100.734 39.1748V34.5811H99.6064V33.6035H100.734V31.8125H101.938ZM107.55 34.7383C107.381 34.7064 107.199 34.6904 107.003 34.6904C106.383 34.6904 105.95 35.0299 105.704 35.709V41H104.494V33.6035H105.67L105.69 34.3555C106.014 33.763 106.472 33.4668 107.064 33.4668C107.256 33.4668 107.415 33.4987 107.543 33.5625L107.55 34.7383ZM108.37 36.96C108.37 35.8844 108.63 35.0345 109.149 34.4102C109.674 33.7812 110.364 33.4668 111.221 33.4668C112.077 33.4668 112.766 33.7721 113.285 34.3828C113.809 34.9935 114.078 35.8252 114.092 36.8779V37.6572C114.092 38.7282 113.832 39.5758 113.312 40.2002C112.793 40.8245 112.1 41.1367 111.234 41.1367C110.378 41.1367 109.689 40.8337 109.17 40.2275C108.655 39.6214 108.388 38.8011 108.37 37.7666V36.96ZM109.58 37.6572C109.58 38.4183 109.728 39.0176 110.024 39.4551C110.325 39.888 110.729 40.1045 111.234 40.1045C112.301 40.1045 112.85 39.3343 112.882 37.7939V36.96C112.882 36.2035 112.731 35.6064 112.431 35.1689C112.13 34.7269 111.727 34.5059 111.221 34.5059C110.724 34.5059 110.325 34.7269 110.024 35.1689C109.728 35.6064 109.58 36.2012 109.58 36.9531V37.6572ZM123.382 38.4844C123.382 37.9876 123.247 37.6071 122.979 37.3428C122.71 37.0785 122.224 36.821 121.522 36.5703C120.821 36.3197 120.283 36.0576 119.909 35.7842C119.54 35.5062 119.262 35.1917 119.075 34.8408C118.893 34.4854 118.802 34.0798 118.802 33.624C118.802 32.8356 119.064 32.1862 119.588 31.6758C120.117 31.1654 120.807 30.9102 121.659 30.9102C122.243 30.9102 122.762 31.0423 123.218 31.3066C123.674 31.5664 124.024 31.9287 124.271 32.3936C124.517 32.8584 124.64 33.3688 124.64 33.9248H123.382C123.382 33.3096 123.234 32.8333 122.938 32.4961C122.641 32.1589 122.215 31.9902 121.659 31.9902C121.153 31.9902 120.761 32.1315 120.483 32.4141C120.205 32.6966 120.066 33.0931 120.066 33.6035C120.066 34.0228 120.217 34.3737 120.518 34.6562C120.818 34.9388 121.283 35.1917 121.912 35.415C122.892 35.7386 123.591 36.1374 124.011 36.6113C124.435 37.0853 124.646 37.7051 124.646 38.4707C124.646 39.2773 124.384 39.9245 123.86 40.4121C123.336 40.8952 122.623 41.1367 121.721 41.1367C121.142 41.1367 120.606 41.0114 120.114 40.7607C119.627 40.5055 119.242 40.1501 118.959 39.6943C118.681 39.234 118.542 38.7077 118.542 38.1152H119.8C119.8 38.7305 119.971 39.209 120.312 39.5508C120.659 39.8926 121.128 40.0635 121.721 40.0635C122.272 40.0635 122.687 39.9222 122.965 39.6396C123.243 39.3571 123.382 38.972 123.382 38.4844ZM127.6 41H126.349V31.0469H127.6V41ZM136.021 39.7627L135.803 40.0361C135.174 40.7699 134.253 41.1367 133.041 41.1367C131.965 41.1367 131.12 40.7812 130.505 40.0703C129.894 39.3548 129.582 38.3454 129.568 37.042V35.0869C129.568 33.6924 129.846 32.6488 130.402 31.9561C130.963 31.2588 131.799 30.9102 132.911 30.9102C133.859 30.9102 134.6 31.1745 135.133 31.7031C135.671 32.2318 135.967 32.986 136.021 33.9658H134.771C134.72 33.346 134.547 32.863 134.251 32.5166C133.959 32.1657 133.515 31.9902 132.918 31.9902C132.202 31.9902 131.678 32.2249 131.346 32.6943C131.013 33.1592 130.84 33.9043 130.826 34.9297V36.96C130.826 37.9626 131.018 38.7327 131.4 39.2705C131.783 39.8037 132.332 40.0703 133.048 40.0703C133.722 40.0703 134.235 39.9062 134.586 39.5781L134.771 39.4072V37.1104H132.952V36.0439H136.021V39.7627ZM142.707 38.4023H139.344L138.571 41H137.286L140.492 31.0469H141.565L144.778 41H143.493L142.707 38.4023ZM139.672 37.3223H142.386L141.025 32.7969L139.672 37.3223ZM147.383 37.1035V41H146.132V31.0469H149.304C150.229 31.0469 150.956 31.3249 151.484 31.8809C152.013 32.4323 152.277 33.1683 152.277 34.0889C152.277 35.0459 152.024 35.7842 151.519 36.3037C151.017 36.8187 150.309 37.0853 149.393 37.1035H147.383ZM147.383 36.0303H149.304C149.86 36.0303 150.286 35.8639 150.582 35.5312C150.878 35.1986 151.026 34.7223 151.026 34.1025C151.026 33.5055 150.874 33.027 150.568 32.667C150.263 32.307 149.844 32.127 149.311 32.127H147.383V36.0303Z" fill="#333333"/>
</svg>
